<svg height="36" viewBox="0 0 36 36" width="36" xmlns="http://www.w3.org/2000/svg"><g fill="none" fill-rule="evenodd"><path d="m0 0h36v36h-36z"/><path d="m10.2986312 18.0029507c0 4.2569908 3.4512422 7.7028358 7.7012701 7.7028358 4.250028 0 7.7012702-3.4519438 7.7012702-7.7028358 0-4.2508919-3.4451446-7.7028358-7.7012702-7.7028358-4.2561255 0-7.7012701 3.445845-7.7012701 7.7028358zm9.0046711-15.00232877c2.2320993.00325486 3.0847867.0168525 3.9963995.05212069l.2400944.00969943c.2027689.00850492.4142332.01808052.6491702.02884318 1.5975715.07318609 2.6890421.32323856 3.6402679.69526784.9878114.38422697 1.8231827.89652958 2.6585541 1.73207076.8292737.82944233 1.3414722 1.67108235 1.7256211 2.6529957.365856.95141915.6219553 2.04311167.6951265 3.64100787.0645628 1.4099085.0864002 1.9746316.0906449 4.8866573l.0007707.9472193.0000484.3503479c0 .1198243-.0000158.2365675-.0000484.3503479l-.0007707.9472192c-.0032542 2.2325531-.0168491 3.0854139-.0521101 3.9972119l-.0096975.2401433c-.0085032.20281-.0180768.4143174-.0288373.6493022-.0731712 1.5978962-.3231729 2.6895887-.6951265 3.6410079-.3841489.9880121-.8963474 1.8235533-1.7317187 2.6590945-.8353714.8355412-1.6707427 1.3478438-2.6585541 1.7320708-.9512258.3659304-2.0426964.6220817-3.6402679.6952678-1.4096219.0645759-1.9742302.0864178-4.8856641.0906633h-2.5946068c-2.2320993-.0032549-3.0847867-.0168525-3.9963994-.0521207l-.2400945-.0096994c-.2027688-.0085049-.4142332-.0180806-.6491702-.0288432-1.5975715-.0731861-2.68904205-.3232386-3.64026782-.6952678-.98781137-.384227-1.82318272-.8965296-2.65855407-1.7320708s-1.34756984-1.6710824-1.73171871-2.6590945c-.36585606-.9514192-.62195531-2.0431117-.69512652-3.6410079-.01076047-.2349848-.02033413-.4464922-.02883732-.6493022l-.00969746-.2401433c-.03526103-.911798-.0488559-1.7646588-.0521101-3.9972119v-2.5951343c.00424461-2.9120257.02608204-3.4767488.09064488-4.8866573.07317121-1.5978962.32317286-2.68958872.69512652-3.64100787.38414887-.98191335.89634736-1.82355337 1.73171871-2.6529957.83537135-.83554118 1.6707427-1.34784379 2.65855407-1.73207076.95122577-.37202928 2.04269632-.62818059 3.64636542-.69526784.234937-.01076266.4464014-.02033826.6491702-.02884318l.2400945-.00969943c.9116127-.03526819 1.7643001-.04886583 3.9963994-.05212069zm-.2948733 2.7013062h-2.0170553c-3.0931926.00238272-3.61678.01851188-5.0524878.08504469-1.4634243.06708725-2.25611245.31104088-2.78660374.51840146-.70122413.27444783-1.20122742.59768639-1.72562111 1.12218669s-.84756655 1.02460523-1.1219586 1.72597191c-.20731844.53059914-.45122248 1.32344842-.51829609 2.78717022-.05894348 1.3881331-.08021509 1.923767-.08450583 4.7525709l-.00023618 2.6193534c.00322789 2.828804.02044003 3.3644379.08474201 4.752571.06707361 1.4637217.31097765 2.256571.51829609 2.7871702.27439205.7013667.59756491 1.2014716 1.1219586 1.7259719s1.02439698.8477389 1.72562111 1.1221867c.53049129.2073606 1.32317944.4513142 2.78660374.5184014 1.4835648.0630214 1.9931876.0829868 5.3705013.0851754l1.3810282.0000631c.1089456-.0000502.2149072-.0001143.3180136-.0001938l.5854087-.0006707c2.5816493-.0040866 3.1270851-.0222767 4.4670791-.084374 1.4634243-.0670872 2.2561124-.3110408 2.7866037-.5184014.7012241-.2744478 1.2012274-.5976864 1.7256211-1.1221867s.8475666-1.0246052 1.1219586-1.7259719c.2073184-.5305992.4512225-1.3234485.5182961-2.7871702.060976-1.4359998.0816373-1.9596936.08489-5.053515l-.000148-2.3184094c-.0032279-2.8288039-.02044-3.3644378-.084742-4.7525709-.0670736-1.4637218-.3109777-2.25657108-.5182961-2.78717022-.274392-.70136668-.5975649-1.20147161-1.1219586-1.72597191s-1.024397-.84773886-1.7256211-1.12218669c-.5304913-.20736058-1.3231794-.45131421-2.7866037-.51840146-1.4357079-.06653281-1.9592953-.08266197-5.0524878-.08504469zm-1.0085277 7.29997327c2.7622133 0 5.0000329 2.2382745 5.0000329 5.0010493 0 2.7627749-2.2378196 5.0010494-5.0000329 5.0010494s-5.0000329-2.2382745-5.0000329-5.0010494c0-2.7627748 2.2378196-5.0010493 5.0000329-5.0010493zm8.0122479-4.80588651c.9934455 0 1.7987923.80551048 1.7987923 1.79915801 0 .9936475-.8053468 1.799158-1.7987923 1.799158-.9934456 0-1.7987924-.8055105-1.7987924-1.799158 0-.99364753.8053468-1.79915801 1.7987924-1.79915801z" fill="#b66611" fill-rule="nonzero"/></g></svg>