<svg height="36" viewBox="0 0 36 36" width="36" xmlns="http://www.w3.org/2000/svg"><g fill="none" fill-rule="evenodd"><path d="m0 0h36v36h-36z"/><path d="m33.243 8.484c-1.1451646.50654059-2.3595599.83921008-3.603.987 1.3106262-.78385002 2.2915582-2.01747866 2.76-3.471-1.23.732-2.5785 1.245-3.984 1.5225-1.9412257-2.07702073-5.0365836-2.58886645-7.5431006-1.24732061-2.5065169 1.34154583-3.7974562 4.20103921-3.1458994 6.96832061-5.0444662-.2528351-9.74438417-2.6355081-12.93-6.555-.55756482.95767548-.85056728 2.04634009-.849 3.1545 0 2.175 1.107 4.0965 2.79 5.2215-.99598678-.0313557-1.9700514-.3003292-2.841-.7845v.078c.00061979 2.9865537 2.10527163 5.5591847 5.0325 6.1515-.92457745.2505554-1.89403997.2874873-2.835.108.82069047 2.5562746 3.17617714 4.3076666 5.8605 4.3575-2.62808763 2.0640291-5.96889 2.9986551-9.2865 2.598 2.86754668 1.8441492 6.20564523 2.8231859 9.615 2.8200078 11.5395 0 17.85-9.5595078 17.85-17.8500078 0-.27-.0075-.543-.0195-.81 1.2282962-.8877485 2.2883981-1.98747091 3.1305-3.2475z" fill="#fff" fill-rule="nonzero"/></g></svg>