<svg height="36" viewBox="0 0 36 36" width="36" xmlns="http://www.w3.org/2000/svg"><g fill="none" fill-rule="evenodd"><path d="m0 0h36v36h-36z"/><path d="m23.292 32v-10.836h3.6291111l.5428889-4.2124444h-4.172v-2.688c0-1.2195556.3391111-2.0517778 2.0875556-2.0517778h2.2306666v-3.76755558c-1.0798695-.11457502-2.1651866-.1701391-3.2511111-.16644444-3.2153333 0-5.4164444 1.96311112-5.4164444 5.56888892v3.1048889h-3.6368889v4.2124444h3.6368889v10.836h-13.38711114c-.85910962 0-1.55555556-.6964459-1.55555556-1.5555556v-24.88888884c0-.85910962.69644594-1.55555556 1.55555556-1.55555556h24.88888884c.8591097 0 1.5555556.69644594 1.5555556 1.55555556v24.88888884c0 .8591097-.6964459 1.5555556-1.5555556 1.5555556z" fill="#fff" fill-rule="nonzero"/></g></svg>