<svg height="36" viewBox="0 0 36 36" width="36" xmlns="http://www.w3.org/2000/svg"><g fill="none" fill-rule="evenodd"><path d="m0 0h36v36h-36z"/><path d="m18.3245273 7.00084978c1.674628.00704932 9.3263898.07049316 11.4132339.64148774 1.2850566.34589094 2.2982743 1.35885729 2.6442511 2.64359508.5436778 1.9860222.6097172 5.7940388.6171689 6.9187298l.0008025.173918c.000229.0948959-.0000296.1463556-.0000296.1463556l-.0006667.1456291c-.0058337.8262572-.0627119 4.9622806-.6172751 7.0686677-.3459768 1.2847378-1.3591945 2.2977042-2.6442511 2.6435951-1.0434221.2745166-3.4780735.4270259-5.861198.5117532l-.5938727.0198011c-2.0689528.0645811-4.0064043.0807264-4.8458205.0847627l-.2091198.0008551c-.0295952.0000981-.0564919.0001765-.0805855.0002393l-.2954266-.0000101c-.0240334-.0000652-.0508631-.0001468-.0803854-.0002488l-.2086122-.0008893c-.9171624-.0045976-3.1487294-.0243014-5.4306078-.1087463l-.5955827-.0235304c-2.18189289-.0919022-4.30924672-.2469871-5.27578505-.508693-1.28505663-.3458909-2.29827437-1.3588573-2.64425115-2.6435951-.52276712-1.9651167-.60319284-5.7699171-.61556602-6.8941132l-.0015831-.1738547c-.00016665-.0237173-.00029163-.0447215-.00038536-.0628869v-.1664792c.00009373-.0180792.00021871-.0389847.00038536-.062592l.0015831-.17307c.01237318-1.1192481.0927989-4.9095755.61556602-6.8955977.34597678-1.28473779 1.38390714-2.32241063 2.64425115-2.66830158 2.08684411-.54903324 9.73860585-.61003694 11.41323385-.61681513zm-3.3154922 6.00279742v8.9931646l7.8091903-4.4965823z" fill="#fff" fill-rule="nonzero"/><path d="m0 0h36v36h-36z"/></g></svg>