<svg height="36" viewBox="0 0 36 36" width="36" xmlns="http://www.w3.org/2000/svg"><path d="m13.9744059 0c3.9161236 0 7.2503632 1.36720886 10.0000937 4.10031407 1.3160206 1.31645807 2.3165987 2.82104408 2.9999844 4.5124455.6829481 1.69183893 1.025516 3.48736703 1.025516 5.38745923 0 1.9167174-.3381928 3.712683-1.0123908 5.3870216-.6750731 1.6747762-1.6712761 3.1544243-2.9872967 4.4376319-1.3663338 1.3497086-2.9164206 2.3835372-4.6502602 3.1001734-1.7329645.7166362-3.5249925 1.0749543-5.3747714 1.0749543s-3.6208066-.3535055-5.31264555-1.0627041c-1.69140142-.7078861-3.20823763-1.7329646-4.55007109-3.0743605-1.34183347-1.341396-2.36253692-2.8542946-3.06254785-4.5378209-.70001094-1.6835264-1.05001641-3.4580541-1.05001641-5.3248957 0-1.8502165.35394303-3.6291193 1.0622666-5.33758345.70832357-1.70846419 1.73777715-3.23755058 3.08748574-4.58769668 2.66660417-2.71604244 5.94134286-4.07493867 9.82465356-4.07493867zm.0507507 2.52528946c-3.199925 0-5.89190452 1.11695495-8.07550114 3.34998984-1.10032969 1.11695495-1.9460304 2.37084955-2.53753965 3.76255879-.59238425 1.39170921-.88770137 2.84598201-.88770137 4.36281821 0 1.5002109.29531712 2.946171.88770137 4.3370052.59194675 1.3925843 1.43720996 2.6342287 2.53753965 3.7258082 1.09989219 1.0920171 2.34109908 1.9245926 3.72537071 2.5003516 1.38295913.574884 2.83329423.862326 4.35013043.862326 1.4997735 0 2.9531712-.2909421 4.3632557-.8745762 1.4083345-.5840716 2.6779794-1.4249597 3.8119971-2.5248519 2.1831591-2.1332834 3.2743011-4.8082002 3.2743011-8.0256254 0-1.5500868-.2835044-3.0166097-.8500757-4.40000628-.5656964-1.38339662-1.3912718-2.61629088-2.4736637-3.70043282-2.2514102-2.25009766-4.95914-3.37536524-8.1258145-3.37536524zm-.1754402 9.15045544-1.8755918.9752028c-.2003781-.416069-.4458195-.7083236-.737199-.8750137-.2918171-.1662526-.5626338-.2498164-.8128877-.2498164-1.24951955 0-1.87515432.8247004-1.87515432 2.4749762 0 .7498867.15837747 1.349271.47469491 1.7994656.31675495.4501945.78357475.6755105 1.40045941.6755105.8168252 0 1.3917092-.4003187 1.7255269-1.2000812l1.724652.8750137c-.3666307.6838231-.8750137 1.2210815-1.5251488 1.6126502-.6492602.3920061-1.3663339.5875716-2.1499086.5875716-1.24995707 0-2.25884783-.3828184-3.02535981-1.1502054-.76651198-.766512-1.14976796-1.8331537-1.14976796-3.1994875 0-1.3335209.38763105-2.3914124 1.16245566-3.1749871.77482461-.7831373 1.7539649-1.17514425 2.93785841-1.17514425 1.7338396-.00087416 2.9750465.67419885 3.7253707 2.02434495zm8.0750637 0-1.8502164.9752028c-.1999407-.416069-.446257-.7083236-.7376366-.8750137-.2922545-.1662526-.5718214-.2498164-.837388-.2498164-1.2499571 0-1.8755919.8247004-1.8755919 2.4749762 0 .7498867.158815 1.349271.4751325 1.7994656.3163174.4501945.7826997.6755105 1.4004594.6755105.8159502 0 1.3912717-.4003187 1.7242144-1.2000812l1.7500273.8750137c-.3828184.6838231-.8999515 1.2210815-1.5492117 1.6126502-.6501351.3920061-1.3584587.5875716-2.1249707.5875716-1.2670198 0-2.2789731-.3828184-3.0367349-1.1502054-.7595119-.766512-1.1383928-1.8331537-1.1383928-3.1994875 0-1.3335209.3871935-2.3914124 1.1628932-3.1749871.7743871-.7831373 1.7535274-1.17514425 2.9369834-1.17514425 1.733402-.00087416 2.9676088.67419885 3.7004328 2.02434495z" fill="#b66611" transform="translate(4 4)"/></svg>