<svg height="100" viewBox="0 0 194 100" width="194" xmlns="http://www.w3.org/2000/svg"><path d="m49.2669589 8.77252167c2.703226-1.95314817 5.0524131-3.98182411 8.367092-1.88743901 2.6873735 1.6978643 3.1267137 4.95160074 1.1058995 8.80804874-9.5696161 18.2580834-16.2503058 37.5977246-21.0611572 57.5650015-1.9355128 8.0331338-2.7258724 16.3434545-3.9993552 24.5329307-.0709588.4561878.2083469.9660002.3253533 1.4523991-6.6369066 1.9184053-9.6451041.3685755-9.790796-6.731035-.144937-7.0754417.3623425-14.4265596 2.186133-21.2248143 3.6075725-13.4469645 8.3240639-26.5948389 12.5664905-39.8711106.1713578-.5362472.1909847-1.1215874.4053707-2.4569184-5.4192849 3.7310719-10.187863 7.1079186-15.0530658 10.3374861-5.4985473 3.6502572-11.1714719 6.929673-18.18883811 5.9108034-1.47730052-.2144989-3.20824079-.2696342-4.30055242-1.0928869-1.01757849-.7666069-2.05025458-2.6321428-1.78831116-3.6970844.31855944-1.2975671 1.84568205-3.0354611 3.08519532-3.2567575 12.10340487-2.1568437 21.49530097-8.7124146 30.47708687-15.9201117l1.0759931-.8678141c1.4324255-1.1606196 2.8567088-2.3340971 4.2822764-3.5050865l1.0695638-.8775357c3.0319478-2.4836705 6.0803369-4.9387811 9.2356214-7.21807543zm81.2001561-7.77985272c4.599219-2.50665306 8.277092-.07488191 7.403803 5.14567313-.944623 5.65244972-2.979542 11.11958562-4.536143 16.66765442-5.687262 20.2710627-9.820176 40.8280382-11.279161 61.8842265-.189976 2.7486956-1.44697 4.9785125-4.358182 5.2803093-2.797076.2896946-4.755404-1.589917-4.904081-4.1699392-.374695-6.4988422-.978413-13.1088727-.229022-19.5245128 2.110009-18.0707447 6.49297-35.62488 13.711303-52.3802748.229773-.5317372.356674-1.1088574.865028-2.723735-5.445474 3.5149115-9.936564 6.5646476-14.574829 9.3670463-5.025726 3.0376339-10.176851 5.8657497-15.3031957 8.7301719-.8560178.478034-1.9455633 1.0854095-2.7858124.9174925-1.54759-.310117-2.990806-1.1519712-4.4768229-1.7722052.1845319-.3810279.3437212-.8027587.4976073-1.2329869l.275596-.7766318c.3713676-1.0291951.7814452-1.9960341 1.5072582-2.4553098 7.1807879-4.5443487 14.5823385-8.7331974 21.8757605-13.0990397 5.451482-3.26303601 10.74002-6.82181774 16.310893-9.85793885zm-65.4905714 27.02762525c2.963091-6.1709753 5.1126362-6.7170529 10.1519323-1.2823871-1.3118047.2342464-2.4512225.4386525-3.5029345.6266464-1.0811993 3.3070519-1.9098668 6.5611373-3.2110864 9.6190227-1.3087804 3.0750435-3.0870887 5.9553791-4.4820626 8.5865481 11.3110082 10.3448881 22.6257969 20.6927603 34.0676076 31.1577557-5.3999479 3.4435713-10.4226102 2.8206549-15.1027667-.8407506-5.0241745-3.9307144-9.8729376-8.080755-14.7957968-12.1375446-3.5709821-2.9422542-7.0368686-6.0202818-10.7326045-8.7991603-5.1587573-3.8792398-6.1817382-8.9095694-.7167671-13.9197568 3.6904433-3.3831447 6.1008373-8.379904 8.3244787-13.0103735zm91.7500724-12.7233856c1.926714-2.80333 5.95694-3.5641487 9.844976.7272861-4.505698-1.6214902-6.233797.6691628-7.773814 3.9285369-3.814308 8.0746635-7.919015 16.0137061-11.865732 24.0272657-3.83763 7.7900085-2.615848 9.7095668 5.896754 11.5233109 9.024185 1.9232841 17.988184 4.2221339 26.830306 6.8451328 4.719359 1.4009198 9.128007 3.8331551 14.340894 6.0865496-8.328281 1.4046457-15.914014 2.3472859-23.644193.6676724-7.445047-1.6185095-14.991659-2.7973686-22.393823-4.5760897-3.087558-.7414443-6.141261-2.1937809-8.813533-3.9248111-4.240878-2.7466971-5.680836-10.22746-2.179497-15.9585635 6.139756-10.0501096 13.077734-19.6240554 19.757662-29.3462901z" fill="#fff" fill-rule="evenodd"/></svg>